<?xml version="1.0" encoding="UTF-8" standalone="no"?>
<!-- Created with Inkscape (http://www.inkscape.org/) -->

<svg
   xmlns:dc="http://purl.org/dc/elements/1.1/"
   xmlns:cc="http://creativecommons.org/ns#"
   xmlns:rdf="http://www.w3.org/1999/02/22-rdf-syntax-ns#"
   xmlns:svg="http://www.w3.org/2000/svg"
   xmlns="http://www.w3.org/2000/svg"
   xmlns:sodipodi="http://sodipodi.sourceforge.net/DTD/sodipodi-0.dtd"
   xmlns:inkscape="http://www.inkscape.org/namespaces/inkscape"
   width="24"
   height="24"
   id="svg3049"
   version="1.1"
   inkscape:version="0.92.3 (2405546, 2018-03-11)"
   sodipodi:docname="tray-on.svg"
   inkscape:export-filename="/home/uri/.kde/share/icons/NITRUX-KDE/16x16/actions/view-right-new.png"
   inkscape:export-xdpi="30"
   inkscape:export-ydpi="30">
  <defs
     id="defs3051" />
  <sodipodi:namedview
     id="base"
     pagecolor="#ffffff"
     bordercolor="#666666"
     borderopacity="1.0"
     inkscape:pageopacity="0.0"
     inkscape:pageshadow="2"
     inkscape:zoom="28.12"
     inkscape:cx="2.3574534"
     inkscape:cy="11.808967"
     inkscape:document-units="px"
     inkscape:current-layer="g4255"
     showgrid="false"
     fit-margin-top="0"
     fit-margin-left="0"
     fit-margin-right="0"
     fit-margin-bottom="0"
     inkscape:window-width="1680"
     inkscape:window-height="988"
     inkscape:window-x="-8"
     inkscape:window-y="-8"
     inkscape:window-maximized="1"
     inkscape:showpageshadow="false"
     borderlayer="true"
     inkscape:snap-bbox="true"
     inkscape:object-nodes="true"
     showguides="false"
     showborder="true">
    <inkscape:grid
       type="xygrid"
       id="grid4085" />
    <sodipodi:guide
       position="2.0000044,14.00003"
       orientation="12,0"
       id="guide4075"
       inkscape:locked="false" />
    <sodipodi:guide
       position="2.0000044,2.0000296"
       orientation="0,12"
       id="guide4077"
       inkscape:locked="false" />
    <sodipodi:guide
       position="14.000004,2.0000296"
       orientation="-12,0"
       id="guide4079"
       inkscape:locked="false" />
    <sodipodi:guide
       position="14.000004,14.00003"
       orientation="0,-12"
       id="guide4081"
       inkscape:locked="false" />
  </sodipodi:namedview>
  <metadata
     id="metadata3054">
    <rdf:RDF>
      <cc:Work
         rdf:about="">
        <dc:format>image/svg+xml</dc:format>
        <dc:type
           rdf:resource="http://purl.org/dc/dcmitype/StillImage" />
        <dc:title />
      </cc:Work>
    </rdf:RDF>
  </metadata>
  <g
     inkscape:label="Capa 1"
     inkscape:groupmode="layer"
     id="layer1"
     transform="translate(-421.71429,-523.79074)">
    <g
       id="g4255"
       transform="matrix(1.1,0,0,1.1,-43.371429,-53.579074)">
      <path
         id="path4252"
         transform="translate(421.71429,523.79074)"
         d="M 17.454545,2 C 16.663124,2 16.03042,2.6637055 16,3.4545455 V 6.7272727 H 3.3636364 C 2.4428905,6.7272727 2,7.1378342 2,8.0909091 V 20.636364 C 2,21.55711 2.4428905,22 3.3636364,22 H 20.636364 C 21.55711,22 22,21.557111 22,20.636364 V 8.0909091 C 22,7.1701634 21.537193,6.7272727 20.636364,6.7272727 H 18.909091 V 3.4545455 C 18.909091,2.6631155 18.245974,2 17.454545,2 Z M 9.2727273,9.7272727 c 2.7614097,0 4.9999997,2.2385803 4.9999997,5.0000003 0,2.76142 -2.23859,5 -4.9999997,5 -2.76144,0 -5,-2.23857 -5,-5 0,-2.76142 2.23857,-5.0000003 5,-5.0000003 z"
         style="opacity:1;fill:#f2f2f2;fill-opacity:1;stroke:none"
         inkscape:connector-curvature="0"
         sodipodi:nodetypes="scccssssssccsssssss" />
      <path
         inkscape:connector-curvature="0"
         id="rect4148"
         d="m 430.98702,534.88165 c -2.04481,0 -3.63637,1.59646 -3.63637,3.63636 0,2.04482 1.59156,3.63638 3.63637,3.63637 2.04481,0 3.63637,-1.59156 3.63636,-3.63637 -10e-6,-2.0448 -1.59156,-3.63635 -3.63636,-3.63636 z"
         style="opacity:1;fill:#1d99f3;fill-opacity:1;stroke:none"
         sodipodi:nodetypes="ccccc" />
    </g>
  </g>
</svg>
