<?xml version="1.0" encoding="UTF-8" standalone="no"?>
<svg
   xmlns:dc="http://purl.org/dc/elements/1.1/"
   xmlns:cc="http://creativecommons.org/ns#"
   xmlns:rdf="http://www.w3.org/1999/02/22-rdf-syntax-ns#"
   xmlns:svg="http://www.w3.org/2000/svg"
   xmlns="http://www.w3.org/2000/svg"
   xmlns:sodipodi="http://sodipodi.sourceforge.net/DTD/sodipodi-0.dtd"
   xmlns:inkscape="http://www.inkscape.org/namespaces/inkscape"
   width="24"
   height="24"
   viewBox="0 0 24 24"
   fill="none"
   stroke="currentColor"
   stroke-width="2"
   stroke-linecap="round"
   stroke-linejoin="round"
   class="feather feather-settings"
   version="1.1"
   id="svg6"
   sodipodi:docname="settings.svg"
   inkscape:version="0.92.3 (2405546, 2018-03-11)">
  <metadata
     id="metadata12">
    <rdf:RDF>
      <cc:Work
         rdf:about="">
        <dc:format>image/svg+xml</dc:format>
        <dc:type
           rdf:resource="http://purl.org/dc/dcmitype/StillImage" />
      </cc:Work>
    </rdf:RDF>
  </metadata>
  <defs
     id="defs10" />
  <sodipodi:namedview
     pagecolor="#ffffff"
     bordercolor="#666666"
     borderopacity="1"
     objecttolerance="10"
     gridtolerance="10"
     guidetolerance="10"
     inkscape:pageopacity="0"
     inkscape:pageshadow="2"
     inkscape:window-width="1680"
     inkscape:window-height="988"
     id="namedview8"
     showgrid="false"
     inkscape:zoom="27.812867"
     inkscape:cx="6.1627476"
     inkscape:cy="11.818442"
     inkscape:window-x="-8"
     inkscape:window-y="-8"
     inkscape:window-maximized="1"
     inkscape:current-layer="svg6" />
  <circle
     cx="12"
     cy="12"
     r="3"
     id="circle2"
     style="stroke:#000000;stroke-opacity:1;stroke-linejoin:round;stroke-linecap:round" />
  <path
     d="m 18.054548,14.454556 a 1.35,1.35 0 0 0 0.27,1.489085 l 0.04906,0.04917 a 1.636364,1.636364 0 0 1 0,2.315448 1.636364,1.636364 0 0 1 -2.315458,0 l -0.04906,-0.04917 a 1.35,1.35 0 0 0 -1.489083,-0.27 1.35,1.35 0 0 0 -0.818183,1.235472 v 0.139085 a 1.636364,1.636364 0 0 1 -1.636377,1.636355 1.636364,1.636364 0 0 1 -1.636358,-1.63636 v -0.07362 a 1.35,1.35 0 0 0 -0.8836362,-1.235447 1.35,1.35 0 0 0 -1.489091,0.27 l -0.049095,0.04917 a 1.636364,1.636364 0 0 1 -2.3154544,0 1.636364,1.636364 0 0 1 0,-2.315463 l 0.049094,-0.04917 a 1.35,1.35 0 0 0 0.2700003,-1.48911 1.35,1.35 0 0 0 -1.235454,-0.818188 H 4.6363631 A 1.636364,1.636364 0 0 1 2.9999995,12.065445 1.636364,1.636364 0 0 1 4.6363631,10.429084 h 0.073638 A 1.35,1.35 0 0 0 5.9454562,9.5454455 1.35,1.35 0 0 0 5.675456,8.056357 L 5.626359,8.007267 a 1.636364,1.636364 0 0 1 0,-2.3154542 1.636364,1.636364 0 0 1 2.3154545,0 l 0.049094,0.049083 A 1.35,1.35 0 0 0 9.4799992,6.010896 h 0.065459 A 1.35,1.35 0 0 0 10.363648,4.7754473 V 4.6363564 a 1.636364,1.636364 0 0 1 1.636351,-1.6363634 1.636364,1.636364 0 0 1 1.63636,1.6363634 v 0.07364 a 1.35,1.35 0 0 0 0.81819,1.2354546 1.35,1.35 0 0 0 1.48909,-0.27 l 0.04906,-0.049082 a 1.636364,1.636364 0 0 1 2.315455,0 1.636364,1.636364 0 0 1 0,2.3154547 l -0.04907,0.049081 a 1.35,1.35 0 0 0 -0.27,1.4890933 v 0.065521 a 1.35,1.35 0 0 0 1.235464,0.818195 h 0.13909 A 1.636364,1.636364 0 0 1 21,12.000001 a 1.636364,1.636364 0 0 1 -1.63636,1.63636 h -0.07363 a 1.35,1.35 0 0 0 -1.23545,0.818195 z"
     id="path4"
     inkscape:connector-curvature="0"
     style="stroke-width:2;stroke:#000000;stroke-opacity:1;stroke-miterlimit:4;stroke-dasharray:none;stroke-linejoin:round;stroke-linecap:round" />
</svg>
